#!OML:ASF H:\Male1\Project 1\Capture day 1\Session 1\Male1.ASF
:FULLY-SPECIFIED
:DEGREES
1040
root 16.2661 15.3548 2.82915 179.581 61.2477 184.206
lowerback 4.29973 0.442932 -0.328146
upperback 1.53876 0.60648 -1.89026
thorax -0.813442 0.327975 -1.78521
lowerneck -8.79255 2.99093 6.5226
upperneck 11.3871 3.79159 -4.52173
head 5.07478 1.87885 -2.20098
rclavicle -1.9866e-014 7.15625e-015
rhumerus 37.7384 -21.7917 -33.9832
rradius 137.124
rwrist -31.8119
rhand -33.0742 26.1219
rfingers 7.12502
rthumb -6.28586 -3.76488
lclavicle -1.9866e-014 7.15625e-015
lhumerus 41.2159 23.0272 27.482
lradius 138.059
lwrist 14.4313
lhand -44.0888 -2.82515
lfingers 7.12502
lthumb -16.9067 26.459
rfemur -0.263378 18.9661 22.7514
rtibia 21.9744
rfoot -21.5606 -24.3088
rtoes -30.8835
lfemur 3.66391 -23.8084 -17.5209
ltibia 21.7902
lfoot -22.2181 25.9567
ltoes -15.3121
1041
root 16.2563 15.3562 2.83266 179.494 61.2267 184.121
lowerback 4.31216 0.438792 -0.441017
upperback 1.60452 0.59884 -1.81414
thorax -0.755114 0.324413 -1.64287
lowerneck -8.80838 3.00883 6.64344
upperneck 11.3098 3.81411 -4.67951
head 5.06007 1.88364 -2.26828
rclavicle 2.45996e-014 -1.27222e-014
rhumerus 37.9416 -21.773 -34.0566
rradius 137.101
rwrist -31.9335
rhand -32.8579 26.4795
rfingers 7.12502
rthumb -6.07701 -3.41337
lclavicle 2.45996e-014 -1.27222e-014
lhumerus 41.1004 23.2008 27.4135
lradius 138.127
lwrist 14.4766
lhand -44.1204 -2.72258
lfingers 7.12502
lthumb -16.9371 26.5589
rfemur -0.386083 19.126 22.7331
rtibia 22.1571
rfoot -21.5343 -24.531
rtoes -31.1739
lfemur 3.6348 -23.772 -17.5272
ltibia 21.7102
lfoot -22.1177 25.8796
ltoes -15.2321
1042
root 16.2437 15.3564 2.83228 179.004 61.2041 183.585
lowerback 4.39121 0.412486 -0.687321
upperback 1.60577 0.553793 -1.82867
thorax -0.801201 0.302034 -1.51815
lowerneck -8.61831 3.05975 6.85582
upperneck 11.1439 3.8858 -4.87739
head 4.98894 1.91672 -2.36187
rclavicle 1.78409e-014 4.77083e-015
rhumerus 38.1379 -21.6385 -34.1545
rradius 137.03
rwrist -31.8732
rhand -32.8378 26.6796
rfingers 7.12502
rthumb -6.05763 -3.2138
lclavicle 1.78409e-014 4.77083e-015
lhumerus 40.8877 23.3115 27.3074
lradius 138.199
lwrist 14.4638
lhand -44.3677 -2.09569
lfingers 7.12502
lthumb -17.1752 27.1652
rfemur -0.526318 19.0158 22.3885
rtibia 22.3586
rfoot -21.5957 -24.3313
rtoes -31.0605
lfemur 3.60154 -23.6907 -17.8096
ltibia 21.6705
lfoot -22.2157 25.9014
ltoes -15.5181
1043
root 16.2281 15.3552 2.82993 178.544 61.1897 183.089
lowerback 4.55882 0.377695 -0.850784
upperback 1.56904 0.496977 -1.83028
thorax -0.934939 0.273465 -1.42705
lowerneck -8.39976 3.09079 6.9503
upperneck 10.9854 3.95145 -5.08719
head 4.91301 1.94234 -2.44084
rclavicle 5.48894e-014 3.81667e-014
rhumerus 38.3187 -21.491 -34.1883
rradius 137.004
rwrist -31.7883
rhand -32.8952 26.7555
rfingers 7.12502
rthumb -6.11303 -3.13628
lclavicle 5.48894e-014 3.81667e-014
lhumerus 40.6541 23.3621 27.2049
lradius 138.244
lwrist 14.4477
lhand -44.6009 -1.28999
lfingers 7.12502
lthumb -17.3996 27.9512
rfemur -0.705798 18.6731 21.995
rtibia 22.5849
rfoot -21.5849 -23.9478
rtoes -30.9855
lfemur 3.54568 -23.5059 -18.0621
ltibia 21.6791
lfoot -22.077 25.8971
ltoes -16.472
1044
root 16.2136 15.352 2.82713 178.261 61.2016 182.824
lowerback 4.69141 0.38085 -0.841491
upperback 1.59014 0.500447 -1.81234
thorax -0.987299 0.275572 -1.41517
lowerneck -8.30957 3.11451 6.90742
upperneck 10.8654 3.99928 -5.15881
head 4.86427 1.96015 -2.45399
rclavicle -3.52222e-014 -7.95139e-015
rhumerus 38.4117 -21.5067 -34.1669
rradius 137.067
rwrist -31.8191
rhand -32.6487 26.9945
rfingers 7.12502
rthumb -5.87506 -2.90409
lclavicle -3.52222e-014 -7.95139e-015
lhumerus 40.5587 23.3544 27.1883
lradius 138.259
lwrist 14.3672
lhand -45.5813 -2.24846
lfingers 7.12502
lthumb -18.3429 26.9067
rfemur -0.863823 18.2606 21.7257
rtibia 22.8066
rfoot -21.5178 -23.6593
rtoes -30.9932
lfemur 3.49052 -23.3017 -18.1924
ltibia 21.7448
lfoot -21.4491 25.8049
ltoes -17.2311
1045
root 16.1982 15.349 2.82545 178.122 61.2795 182.692
lowerback 4.76793 0.414837 -0.740495
upperback 1.65734 0.552004 -1.80339
thorax -0.959244 0.302294 -1.46584
lowerneck -8.48238 3.14443 6.81471
upperneck 10.9441 4.03515 -5.09987
head 4.91679 1.97494 -2.41563
rclavicle 3.29983e-014 -3.49861e-014
rhumerus 38.5457 -21.6447 -34.2234
rradius 137.151
rwrist -31.9998
rhand -32.3336 26.9121
rfingers 7.12502
rthumb -5.57082 -2.99472
lclavicle 3.29983e-014 -3.49861e-014
lhumerus 40.5369 23.4417 27.1734
lradius 138.227
lwrist 14.2489
lhand -46.4924 -1.65453
lfingers 7.12502
lthumb -19.2192 27.4158
rfemur -1.0598 17.984 21.5406
rtibia 23.0359
rfoot -21.5583 -23.3695
rtoes -30.8067
lfemur 3.38534 -23.0705 -18.2316
ltibia 21.8467
lfoot -21.4417 25.4942
ltoes -16.2709
1046
root 16.1806 15.3486 2.82097 178.26 61.4981 182.816
lowerback 4.82895 0.489262 -0.455483
upperback 1.70965 0.664744 -1.76934
thorax -0.934604 0.359221 -1.59737
lowerneck -8.89067 3.21501 6.50896
upperneck 11.2905 4.11275 -4.73848
head 5.08378 2.01853 -2.24132
rclavicle 1.18525e-014 -8.74653e-015
rhumerus 38.7734 -21.7268 -34.2961
rradius 137.227
rwrist -32.0538
rhand -32.1872 26.8074
rfingers 7.12502
rthumb -5.42944 -3.10302
lclavicle 1.18525e-014 -8.74653e-015
lhumerus 40.4729 23.6391 27.0427
lradius 138.199
lwrist 14.2284
lhand -45.5516 -2.87851
lfingers 7.12502
lthumb -18.3144 26.2793
rfemur -1.41036 17.8225 21.4551
rtibia 23.3912
rfoot -21.5196 -23.0233
rtoes -31.3835
lfemur 3.27692 -22.728 -18.1288
ltibia 21.8764
lfoot -21.8935 25.1603
ltoes -14.687
1047
root 16.1632 15.3481 2.80989 177.895 61.8222 182.354
lowerback 4.86751 0.625764 -0.306664
upperback 1.73141 0.854312 -1.84665
thorax -0.925774 0.455332 -1.77126
lowerneck -8.89174 3.1978 6.6024
upperneck 11.1882 4.11667 -5.08442
head 5.06129 2.00184 -2.3647
rclavicle 2.26615e-014 -7.15625e-015
rhumerus 38.931 -21.7299 -34.3086
rradius 137.334
rwrist -32.0318
rhand -32.3355 26.6308
rfingers 7.12502
rthumb -5.57268 -3.27593
lclavicle 2.26615e-014 -7.15625e-015
lhumerus 40.3665 23.8406 26.793
lradius 138.242
lwrist 14.3415
lhand -45.3811 -2.59252
lfingers 7.12502
lthumb -18.1503 26.5806
rfemur -1.90275 17.4509 20.9723
rtibia 23.9153
rfoot -21.3024 -22.4489
rtoes -32.207
lfemur 3.27822 -22.3936 -18.4085
ltibia 21.7788
lfoot -21.9124 25.1367
ltoes -14.1954
1048
root 16.1439 15.3443 2.79661 176.61 62.2782 180.881
lowerback 4.91787 0.811719 -0.572191
upperback 1.74779 1.09336 -2.09145
thorax -0.930119 0.578012 -1.88797
lowerneck -8.94226 3.21131 6.50447
upperneck 11.1986 4.14745 -5.09629
head 5.07301 2.01133 -2.34948
rclavicle 1.11593e-013 9.54166e-015
rhumerus 39.1035 -21.6125 -34.383
rradius 137.453
rwrist -32.1499
rhand -32.6285 26.5592
rfingers 7.12502
rthumb -5.85559 -3.33991
lclavicle 1.11593e-013 9.54166e-015
lhumerus 40.2154 24.058 26.3844
lradius 138.276
lwrist 14.445
lhand -45.5781 -2.56459
lfingers 7.12502
lthumb -18.3399 26.5909
rfemur -2.48604 17.0461 19.9486
rtibia 24.5836
rfoot -21.1556 -21.6954
rtoes -32.2647
lfemur 3.44164 -22.083 -19.2764
ltibia 21.5378
lfoot -21.694 25.3219
ltoes -14.1676
1049
root 16.1217 15.3411 2.78078 175.323 62.9184 179.434
lowerback 4.9784 1.04403 -0.77613
upperback 1.78503 1.39852 -2.34404
thorax -0.91512 0.734642 -2.05137
lowerneck -9.20408 3.3053 6.44643
upperneck 11.3433 4.25216 -4.95382
head 5.16415 2.06517 -2.2837
rclavicle 1.45361e-014 2.06736e-014
rhumerus 39.4513 -21.4684 -34.6532
rradius 137.635
rwrist -32.4468
rhand -32.7675 26.4847
rfingers 7.12502
rthumb -5.98978 -3.4106
lclavicle 1.45361e-014 2.06736e-014
lhumerus 40.02 24.2901 25.8592
lradius 138.259
lwrist 14.529
lhand -45.8784 -2.95494
lfingers 7.12502
lthumb -18.6287 26.1731
rfemur -3.20773 16.8245 18.954
rtibia 25.4244
rfoot -21.4228 -20.6295
rtoes -31.8812
lfemur 3.7253 -21.5972 -20.1015
ltibia 21.1254
lfoot -21.5723 25.4237
ltoes -13.448
